Coordinates
version=1
nRows=10
nColumns=33
inDegrees=yes

Units are S.I. units (second, meters, Newtons, ...)
Angles are in degrees.

endheader
time	ground_thorax_rot_x	ground_thorax_rot_y	ground_thorax_rot_z	ground_thorax_tx	ground_thorax_ty	ground_thorax_tz	clav_prot_r	clav_elev_r	scapula_abduction_r	scapula_elevation_r	scapula_upward_rot_r	scapula_winging_r	shoulder_elv_r	plane_of_elev_r	axial_rot_r	elbow_flexion_r	pro_sup_r	wrist_flex_r	wrist_dev_r	clav_prot_l	clav_elev_l	scapula_abduction_l	scapula_elevation_l	scapula_upward_rot_l	scapula_winging_l	shoulder_elv_l	plane_of_elev_l	axial_rot_l	elbow_flexion_l	pro_sup_l	wrist_flex_l	wrist_dev_l
      9.31000000	    -37.52842541	    -14.53852661	     21.76481671	   -164.54344965	    820.18991217	      4.47771832	     10.52855403	    -45.00000000	     42.01654171	    -45.00000000	    -45.00000000	  -2618.51541839	  -2623.56068081	    145.53093992	    179.99999979	   1810.41225220	     50.41400794	     24.10919138	     11.65208784	     16.24643039	     39.09523262	    -39.59076236	    -45.00000000	    -42.84635742	    445.16358003	  -2975.34308602	    133.85742703	   -163.11255177	      6.88598428	     15.78863468	     11.47419200	    -21.44476757
      9.32000000	    -37.75168654	    -14.02812243	     21.12194008	   -170.08042454	    822.70010171	      4.15330244	     10.54877279	    -45.00000000	     41.98372797	    -45.00000000	    -45.00000000	  -2618.84402372	  -2623.32181896	    145.47772245	    179.99999979	   1810.52384616	     51.08270718	     24.27918501	     11.35388122	     16.15158175	     39.05417488	    -39.58546949	    -45.00000000	    -42.86370128	    445.44889352	  -2975.31067085	    133.95021687	   -163.43443944	      6.79305760	     14.80033448	     11.25356680	    -21.38975477
      9.33000000	    -38.02003537	    -13.43078866	     20.36115341	   -175.58405982	    825.14985784	      3.84207929	     10.53294027	    -45.00000000	     42.00677406	    -45.00000000	    -45.00000000	  -2619.05579015	  -2623.13460999	    145.57229073	    179.99999979	   1810.74837154	     51.79341449	     24.38649345	     11.00356476	     16.11566284	     39.04685914	    -39.49133970	    -45.00000000	    -42.83361091	    445.70644521	  -2975.20767952	    134.07357947	   -164.07298475	      6.83821129	     14.01653737	     11.22422691	    -21.38476760
      9.34000000	    -38.18056144	    -12.97143016	     19.85250896	   -181.03143647	    827.52662939	      3.55236577	     10.53475743	    -45.00000000	     41.85152850	    -45.00000000	    -45.00000000	  -2619.42969937	  -2622.99581451	    145.49988034	    179.99999979	   1810.78845365	     52.65433652	     24.57733678	     10.73003803	     16.06054681	     38.97106569	    -39.44071567	    -45.00000000	    -43.02366699	    445.97350096	  -2975.19859183	    134.11516197	   -164.27405297	      6.77311361	     13.03390688	     10.98356792	    -21.26818086
      9.35000000	    -38.36009075	    -12.44094251	     19.25939106	   -186.40018682	    829.81813527	      3.29298262	     10.51306033	    -45.00000000	     41.81135637	    -45.00000000	    -45.00000000	  -2619.69022476	  -2622.87515470	    145.59741146	    179.99999979	   1810.86723338	     53.54941936	     24.71879000	     10.43040083	     15.99273112	     38.91946696	    -39.35335290	    -45.00000000	    -43.11289622	    446.18106264	  -2975.14813846	    134.20325397	   -164.72650821	      6.74936483	     12.28404297	     10.90932381	    -21.19827801
      9.36000000	    -38.52033370	    -12.01791702	     18.77369671	   -191.66524068	    832.01122773	      3.07288761	     10.54459854	    -45.00000000	     41.66261676	    -45.00000000	    -45.00000000	  -2620.00447496	  -2622.89900454	    145.60899955	    179.99999979	   1810.87446064	     54.55343375	     24.92714278	     10.17917491	     15.93412740	     38.82201759	    -39.29559353	    -45.00000000	    -43.41683171	    446.39712171	  -2975.07245693	    134.32295131	   -165.15770621	      6.72050785	     11.49178915	     10.64801384	    -21.06600976
      9.37000000	    -38.58397122	    -11.62712116	     18.32188947	   -196.80873107	    834.09617534	      2.89997500	     10.50971780	    -45.00000000	     41.63234017	    -45.00000000	    -45.00000000	  -2620.29099486	  -2622.81017026	    145.70389170	    179.99999979	   1810.86981888	     55.58308482	     25.12364442	      9.92749429	     15.84329082	     38.77856408	    -39.15986781	    -45.00000000	    -43.68741093	    446.53014449	  -2975.10615860	    134.47677622	   -165.62122759	      6.71160225	     10.75863163	     10.46953510	    -20.94609649
      9.38000000	    -38.68196959	    -11.17992248	     17.83137312	   -201.80894378	    836.06200342	      2.78074720	     10.48233197	    -45.00000000	     41.58078581	    -45.00000000	    -45.00000000	  -2620.58169705	  -2622.83531779	    145.78822887	    179.99999979	   1810.82669334	     56.56247850	     25.27567129	      9.69688484	     15.81225581	     38.66716542	    -39.05439419	    -45.00000000	    -43.93102537	    446.70533997	  -2975.09193638	    134.56292571	   -166.20128697	      6.73449605	     10.24922231	     10.36727873	    -20.88225549
      9.39000000	    -38.76242235	    -10.75060902	     17.35699529	   -206.64724662	    837.89929877	      2.71956536	     10.48503692	    -45.00000000	     41.48390061	    -45.00000000	    -45.00000000	  -2620.85484316	  -2622.87374535	    145.85860615	    179.99999979	   1810.76224811	     57.46674522	     25.39999737	      9.48569478	     15.73448860	     38.55945129	    -38.91348074	    -45.00000000	    -44.05132729	    446.90415759	  -2975.13846571	    134.66129309	   -166.98732057	      6.76373931	      9.96382631	     10.26766570	    -20.85598788
      9.40000000	    -38.77007245	    -10.48896620	     17.03500635	   -211.30816331	    839.59977726	      2.71786275	     10.43137814	    -45.00000000	     41.41538812	    -45.00000000	    -45.00000000	  -2621.11213009	  -2622.92723159	    145.97529847	    179.99999979	   1810.58945755	     58.39132879	     25.63150337	      9.34784528	     15.68548473	     38.48962568	    -38.71087648	    -45.00000000	    -44.51279092	    446.90308847	  -2975.13530253	    134.82926791	   -167.34060380	      6.82940723	      9.53136958	      9.99822348	    -20.75888067
